<svg width="40" height="40" viewBox="0 0 40 40" fill="none" xmlns="http://www.w3.org/2000/svg">
<path d="M20 0C8.95556 0 0 8.80396 0 19.6615C0 28.7713 6.31111 36.4174 14.8667 38.6457L15.9114 38.8944C18.9543 39.6188 22.1339 39.533 25.1333 38.6457V38.6457C33.6889 36.4174 40 28.7713 40 19.6615C40 8.80396 31.0444 0 20 0ZM20 4.36921C23.6889 4.36921 26.6667 7.29658 26.6667 10.923C26.6667 14.5495 23.6889 17.4768 20 17.4768C16.3111 17.4768 13.3333 14.5495 13.3333 10.923C13.3333 7.29658 16.3111 4.36921 20 4.36921ZM20 35.6091C14.4444 35.6091 9.53333 32.8128 6.66667 28.5746C6.73333 24.2273 15.5556 21.8461 20 21.8461C24.4222 21.8461 33.2667 24.2273 33.3333 28.5746C30.4667 32.8128 25.5556 35.6091 20 35.6091Z" fill="#999999"/>
</svg>
