<svg width="35" height="40" viewBox="0 0 35 40" fill="none" xmlns="http://www.w3.org/2000/svg">
<path d="M30.125 27.6923V27.9089L30.283 28.057L34.5 32.0115V33.3462H0.5V32.0115L4.71702 28.057L4.875 27.9089V27.6923V17.4359C4.875 11.3168 8.33271 6.2964 14.3276 4.95981L14.7188 4.87259V4.47179V3.07692C14.7188 1.6803 15.9297 0.5 17.5 0.5C19.0703 0.5 20.2812 1.6803 20.2812 3.07692V4.47179V4.8729L20.6728 4.95989C26.688 6.29635 30.125 11.336 30.125 17.4359V27.6923ZM26.25 30.2436H26.75V29.7436V17.4359C26.75 14.7858 25.8892 12.3537 24.289 10.5781C22.6835 8.79663 20.3589 7.70513 17.5 7.70513C14.6411 7.70513 12.3165 8.79663 10.711 10.5781C9.1108 12.3537 8.25 14.7858 8.25 17.4359V29.7436V30.2436H8.75H26.25ZM21.3371 36.3974C21.0742 38.1221 19.4734 39.5 17.5 39.5C15.5266 39.5 13.9258 38.1221 13.6629 36.3974H21.3371Z" fill="black" stroke="black"/>
</svg>
