<svg width="165" height="40" viewBox="0 0 165 40" fill="none" xmlns="http://www.w3.org/2000/svg">
<rect x="0.5" y="0.5" width="164" height="39" rx="19.5" stroke="black"/>
<path d="M17.224 25.249V26.422H31.147V25.249H17.224ZM23.429 21.271V25.776H24.84V21.271H23.429ZM18.431 14.42V15.576H29.838V14.42H18.431ZM18.465 20.608V21.747H29.821V20.608H18.465ZM20.828 15.355V20.812H22.239V15.355H20.828ZM26.064 15.355V20.812H27.458V15.355H26.064ZM34.6477 21.237V22.376H45.2047V21.237H34.6477ZM32.8627 25.181V26.354H46.7857V25.181H32.8627ZM34.6477 14.267V21.594H36.0757V15.423H45.0347V14.267H34.6477ZM35.6167 17.701V18.823H44.7117V17.701H35.6167ZM49.7764 13.349V14.454H61.0644V13.349H49.7764ZM49.8444 17.378V18.466H60.9964V17.378H49.8444ZM52.1054 13.774V18.092H53.5164V13.774H52.1054ZM57.3414 13.774V18.092H58.7354V13.774H57.3414ZM48.4844 19.928V21.05H62.3734V19.928H48.4844ZM54.7234 18.16V20.523H56.1174V18.16H54.7234ZM50.1674 22.257V23.311H59.2114V24.603H50.2014V27.51H51.5954V25.606H60.6054V22.257H50.1674ZM50.2014 27.085V28.156H61.0644V27.085H50.2014ZM75.326 12.941V28.343H76.737V12.941H75.326ZM65.024 23.464V24.637H66.299C68.934 24.637 71.246 24.535 74.034 24.076L73.881 22.92C71.161 23.362 68.866 23.464 66.299 23.464H65.024ZM64.99 14.386V15.542H70.668V18.721H65.024V23.906H66.435V19.877H72.096V14.386H64.99ZM86.0007 21.645V25.47H87.4117V21.645H86.0007ZM86.7147 13.961C83.4677 13.961 81.1217 15.542 81.1217 17.99C81.1217 20.438 83.4677 22.019 86.7147 22.019C89.9617 22.019 92.2907 20.438 92.2907 17.99C92.2907 15.542 89.9617 13.961 86.7147 13.961ZM86.7147 15.083C89.1457 15.083 90.9307 16.239 90.9307 17.99C90.9307 19.741 89.1457 20.897 86.7147 20.897C84.2667 20.897 82.4817 19.741 82.4817 17.99C82.4817 16.239 84.2667 15.083 86.7147 15.083ZM79.7787 25.198V26.371H93.7017V25.198H79.7787ZM100.199 20.268V21.441H114.088V20.268H100.199ZM101.95 17.667V18.806H112.473V17.667H101.95ZM101.95 13.57V18.211H103.344V14.726H112.354V13.57H101.95ZM107.118 22.767C103.837 22.767 101.848 23.77 101.848 25.538C101.848 27.306 103.837 28.292 107.118 28.292C110.399 28.292 112.388 27.306 112.388 25.538C112.388 23.77 110.399 22.767 107.118 22.767ZM107.118 23.855C109.532 23.855 110.96 24.467 110.96 25.538C110.96 26.592 109.532 27.187 107.118 27.187C104.721 27.187 103.276 26.592 103.276 25.538C103.276 24.467 104.721 23.855 107.118 23.855ZM115.82 21.407V22.563H129.76V21.407H115.82ZM117.588 13.349V14.454H126.581V16.035H117.622V19.146H119.016V17.072H127.958V13.349H117.588ZM117.622 18.687V19.792H128.298V18.687H117.622ZM122.076 19.265V21.985H123.487V19.265H122.076ZM117.367 23.736V24.892H126.649V28.19H128.06V23.736H117.367Z" fill="black"/>
<path d="M144.093 27.2209V13.7337H145.915V27.2209H144.093ZM138.255 21.3828V19.5717H151.753V21.3828H138.255Z" fill="black"/>
</svg>
