<svg width="66" height="65" viewBox="0 0 66 65" fill="none" xmlns="http://www.w3.org/2000/svg">
<rect x="0.687744" width="65" height="65" rx="20" fill="#D9D9D9" fill-opacity="0.3"/>
<path d="M46.2051 43.3414C44.3051 43.3414 42.6051 44.0944 41.3051 45.2741L23.4801 34.8574C23.6051 34.2801 23.7051 33.7028 23.7051 33.1004C23.7051 32.498 23.6051 31.9207 23.4801 31.3434L41.1051 21.0271C42.4551 22.2821 44.2301 23.0602 46.2051 23.0602C50.3551 23.0602 53.7051 19.6968 53.7051 15.5301C53.7051 11.3635 50.3551 8 46.2051 8C42.0551 8 38.7051 11.3635 38.7051 15.5301C38.7051 16.1325 38.8051 16.7098 38.9301 17.2871L21.3051 27.6034C19.9551 26.3484 18.1801 25.5703 16.2051 25.5703C12.0551 25.5703 8.70508 28.9337 8.70508 33.1004C8.70508 37.2671 12.0551 40.6305 16.2051 40.6305C18.1801 40.6305 19.9551 39.8524 21.3051 38.5974L39.1051 49.0392C38.9801 49.5663 38.9051 50.1185 38.9051 50.6707C38.9051 54.7118 42.1801 58 46.2051 58C50.2301 58 53.5051 54.7118 53.5051 50.6707C53.5051 46.6295 50.2301 43.3414 46.2051 43.3414Z" fill="white"/>
</svg>
